# Blender 4.2.3 LTS
# www.blender.org
mtllib Cube.mtl
o Cube
v 0.080057 -0.766925 1.550941
v -1.446464 0.342805 0.888948
v 0.156547 -1.712138 -0.209946
v -1.369973 -0.602408 -0.871939
v 1.369973 0.602408 0.871939
v -0.156547 1.712138 0.209946
v 1.446464 -0.342805 -0.888948
v -0.080057 0.766925 -1.550941
vn -0.6450 -0.6847 0.3395
vn 0.0382 -0.4726 -0.8804
vn 0.6450 0.6847 -0.3395
vn -0.0382 0.4726 0.8804
vn 0.7633 -0.5549 0.3310
vn -0.7633 0.5549 -0.3310
vt 0.625000 0.000000
vt 0.375000 0.250000
vt 0.375000 0.000000
vt 0.625000 0.250000
vt 0.375000 0.500000
vt 0.625000 0.500000
vt 0.375000 0.750000
vt 0.625000 0.750000
vt 0.375000 1.000000
vt 0.125000 0.750000
vt 0.125000 0.500000
vt 0.875000 0.500000
vt 0.625000 1.000000
vt 0.875000 0.750000
s 0
f 2/1/1 3/2/1 1/3/1
f 4/4/2 7/5/2 3/2/2
f 8/6/3 5/7/3 7/5/3
f 6/8/4 1/9/4 5/7/4
f 7/5/5 1/10/5 3/11/5
f 4/12/6 6/8/6 8/6/6
f 2/1/1 4/4/1 3/2/1
f 4/4/2 8/6/2 7/5/2
f 8/6/3 6/8/3 5/7/3
f 6/8/4 2/13/4 1/9/4
f 7/5/5 5/7/5 1/10/5
f 4/12/6 2/14/6 6/8/6
